# xmcd CD database file
# Copyright (C) 1996 Ti Kan
#
# Track frame offsets:
#	150
#	23687
#	41617
#	64610
#	85835
#	106472
#	126605
#	147392
#	169534
#	192937
#	211775
#	233525
#	257277
#	274757
#	306247
#
# Disc length: 4391 seconds
#
# Revision: 1
# Processed by: cddbd v1.4b41PL1 Copyright (c) Steve Scherf et al.
# Submitted via: EasyCD 2.21 - (C) 1996 Greg Leichner
#
DISCID=c911250f
DTITLE=David Beaudry - alien man
DYEAR=1900
DGENRE=
TTITLE0=Bonaree
TTITLE1=Have A Nice Forever
TTITLE2=Lonely Gospel Angel
TTITLE3=He Didn't Die Alone
TTITLE4=It Just Had To Be Mary
TTITLE5=Fall Between The Words
TTITLE6=Sweet Monique
TTITLE7=Room With A View
TTITLE8=Street Church
TTITLE9=Some Kind Of Crazy
TTITLE10=Feel The Power
TTITLE11=Queen Of Sacred Heart
TTITLE12=Old Love Dies Hard
TTITLE13=Southbound Train
TTITLE14=Alien Man
EXTD=
EXTT0=
EXTT1=
EXTT2=
EXTT3=
EXTT4=
EXTT5=
EXTT6=
EXTT7=
EXTT8=
EXTT9=
EXTT10=
EXTT11=
EXTT12=
EXTT13=
EXTT14=
PLAYORDER=
